<svg width="97" height="28" viewBox="0 0 97 28" fill="none" xmlns="http://www.w3.org/2000/svg">
<g clip-path="url(#clip0_237_28819)">
<path d="M0.584 20V4.248H6.282C7.514 4.248 8.57733 4.65867 9.472 5.48C10.3813 6.28667 10.836 7.306 10.836 8.538C10.836 9.286 10.638 9.946 10.242 10.518C9.86067 11.09 9.34733 11.5227 8.702 11.816V11.904C9.47933 12.168 10.1173 12.6227 10.616 13.268C11.1147 13.9133 11.364 14.6613 11.364 15.512C11.364 16.8027 10.8873 17.8733 9.934 18.724C8.99533 19.5747 7.88067 20 6.59 20H0.584ZM2.608 11.002H6.282C7.04467 11.002 7.65333 10.7527 8.108 10.254C8.57733 9.74067 8.812 9.18333 8.812 8.582C8.812 7.98067 8.58467 7.43067 8.13 6.932C7.69 6.43333 7.10333 6.184 6.37 6.184H2.608V11.002ZM2.608 18.064H6.678C7.45533 18.064 8.086 17.7927 8.57 17.25C9.054 16.7073 9.296 16.1133 9.296 15.468C9.296 14.8227 9.04667 14.236 8.548 13.708C8.04933 13.1653 7.39667 12.894 6.59 12.894H2.608V18.064ZM16.7045 20.352C15.5605 20.352 14.5998 20.022 13.8225 19.362C13.0598 18.702 12.6785 17.8293 12.6785 16.744C12.6785 15.5707 13.1332 14.654 14.0425 13.994C14.9518 13.3193 16.0738 12.982 17.4085 12.982C18.5965 12.982 19.5718 13.202 20.3345 13.642V13.334C20.3345 12.542 20.0632 11.9113 19.5205 11.442C18.9778 10.958 18.3105 10.716 17.5185 10.716C16.9318 10.716 16.3965 10.8553 15.9125 11.134C15.4432 11.4127 15.1205 11.794 14.9445 12.278L13.0965 11.486C13.3458 10.8407 13.8372 10.2467 14.5705 9.704C15.3038 9.14667 16.2718 8.868 17.4745 8.868C18.8532 8.868 19.9972 9.27133 20.9065 10.078C21.8158 10.8847 22.2705 12.0213 22.2705 13.488V20H20.3345V18.504H20.2465C19.4398 19.736 18.2592 20.352 16.7045 20.352ZM17.0345 18.504C17.8705 18.504 18.6258 18.196 19.3005 17.58C19.9898 16.9493 20.3345 16.2087 20.3345 15.358C19.7625 14.8887 18.9045 14.654 17.7605 14.654C16.7778 14.654 16.0372 14.8667 15.5385 15.292C15.0398 15.7173 14.7905 16.216 14.7905 16.788C14.7905 17.316 15.0178 17.734 15.4725 18.042C15.9272 18.35 16.4478 18.504 17.0345 18.504ZM26.5763 20H24.5523V9.22H26.4883V10.98H26.5763C26.7816 10.3933 27.1996 9.90933 27.8303 9.528C28.4756 9.14667 29.099 8.956 29.7003 8.956C30.3016 8.956 30.8076 9.044 31.2183 9.22L30.4483 11.112C30.1843 11.0093 29.825 10.958 29.3703 10.958C28.637 10.958 27.9843 11.2513 27.4123 11.838C26.855 12.41 26.5763 13.1653 26.5763 14.104V20ZM36.3885 20.352C34.9952 20.352 33.7925 19.802 32.7805 18.702C31.7685 17.602 31.2625 16.238 31.2625 14.61C31.2625 12.982 31.7685 11.618 32.7805 10.518C33.7925 9.418 34.9952 8.868 36.3885 8.868C37.2098 8.868 37.9432 9.044 38.5885 9.396C39.2485 9.748 39.7398 10.188 40.0625 10.716H40.1505L40.0625 9.22V4.248H42.0865V20H40.1505V18.504H40.0625C39.7398 19.032 39.2485 19.472 38.5885 19.824C37.9432 20.176 37.2098 20.352 36.3885 20.352ZM36.7185 18.504C37.6718 18.504 38.4785 18.152 39.1385 17.448C39.8132 16.744 40.1505 15.798 40.1505 14.61C40.1505 13.422 39.8132 12.476 39.1385 11.772C38.4785 11.068 37.6718 10.716 36.7185 10.716C35.7798 10.716 34.9732 11.0753 34.2985 11.794C33.6238 12.498 33.2865 13.4367 33.2865 14.61C33.2865 15.7833 33.6238 16.7293 34.2985 17.448C34.9732 18.152 35.7798 18.504 36.7185 18.504Z" fill="#E8EAED"/>
<path d="M60.908 15.432L61.448 14.604C63.032 15.12 64.724 15.9 65.708 16.56L65.012 17.448C64.064 16.764 62.48 15.972 60.908 15.432ZM59.54 6.612L60.68 6.264C61.004 6.768 61.364 7.44 61.508 7.884L60.32 8.268C60.188 7.836 59.852 7.128 59.54 6.612ZM55.508 7.632H65.516V10.212H64.328V8.7H56.636V10.212H55.508V7.632ZM60.428 9.264H61.616C61.472 13.632 61.124 16.296 56.084 17.484C55.964 17.184 55.676 16.752 55.436 16.5C60.164 15.492 60.308 13.26 60.428 9.264ZM55.328 13.344H65.732V14.304H55.328V13.344ZM57.332 9.888L58.004 9.156C58.64 9.492 59.42 10.02 59.792 10.44L59.084 11.256C58.736 10.848 57.968 10.26 57.332 9.888ZM56.12 11.724L56.78 10.968C57.44 11.292 58.244 11.82 58.64 12.228L57.956 13.08C57.584 12.66 56.78 12.084 56.12 11.724ZM70.532 11.964H71.516C71.516 11.964 71.504 12.264 71.492 12.396C71.324 15.432 71.156 16.584 70.784 16.98C70.556 17.256 70.316 17.34 69.944 17.376C69.632 17.412 69.068 17.4 68.492 17.376C68.48 17.088 68.36 16.704 68.204 16.44C68.768 16.5 69.296 16.512 69.524 16.512C69.716 16.512 69.836 16.488 69.944 16.368C70.208 16.092 70.376 15 70.532 12.132V11.964ZM66.812 14.628C67.628 14.46 68.792 14.184 69.968 13.896L70.064 14.748C68.996 15.024 67.916 15.312 67.016 15.54L66.812 14.628ZM67.172 6.876H70.328V7.836H67.172V6.876ZM70.028 6.876H70.988C70.88 8.604 70.7 10.884 70.544 12.192L69.584 12.216C69.764 10.848 69.956 8.556 70.028 6.876ZM67.664 8.688L68.624 8.748C68.552 10.08 68.408 11.832 68.276 12.876H67.304C67.46 11.796 67.604 10.008 67.664 8.688ZM67.652 11.976H70.664V12.876H67.652V11.976ZM74.816 6.732C75.536 7.872 76.988 9.264 78.236 9.996C78.044 10.272 77.804 10.776 77.696 11.088C76.352 10.152 74.84 8.58 73.988 7.272L74.816 6.732ZM74.42 6.264L75.404 6.6C74.528 8.436 73.088 10.08 71.576 11.124C71.456 10.896 71.12 10.428 70.916 10.2C72.344 9.324 73.676 7.884 74.42 6.264ZM72.872 10.068H76.508V11.04H72.872V10.068ZM72.068 12.228L72.944 12.012C73.268 12.9 73.592 14.076 73.7 14.844L72.776 15.096C72.692 14.328 72.38 13.14 72.068 12.228ZM74.168 11.916L75.044 11.784C75.272 12.696 75.488 13.86 75.56 14.628L74.636 14.784C74.588 14.004 74.372 12.816 74.168 11.916ZM76.832 11.916L77.864 12.144C77.336 13.56 76.616 15.3 76.028 16.38L75.2 16.14C75.764 15.036 76.472 13.212 76.832 11.916ZM71.72 15.972H77.9V16.956H71.72V15.972ZM80.12 9.636H83.792V10.632H80.12V9.636ZM84.848 9.792H89V10.836H84.848V9.792ZM81.8 6.36H82.832V10.224H81.8V6.36ZM80.168 12.204H83.12V17.496H82.076V13.212H80.168V12.204ZM79.676 6.648H80.72V11.364C80.72 13.464 80.588 15.9 79.628 17.556C79.448 17.352 79.064 17.016 78.824 16.86C79.58 15.36 79.676 13.14 79.676 11.364V6.648ZM88.7 9.792H88.892L89.084 9.756L89.756 9.936C89.252 13.908 87.704 16.308 85.4 17.556C85.244 17.268 84.944 16.836 84.716 16.632C86.78 15.66 88.268 13.32 88.7 10.008V9.792ZM86.24 10.464C86.804 13.248 88.004 15.588 90.092 16.644C89.852 16.848 89.504 17.256 89.324 17.556C87.164 16.284 86 13.764 85.376 10.656L86.24 10.464ZM89.276 6.456L89.948 7.44C88.436 7.788 86.348 8.016 84.56 8.112C84.524 7.824 84.38 7.416 84.26 7.152C86.024 7.02 88.028 6.768 89.276 6.456ZM84.26 7.152H85.34V11.244C85.34 13.284 85.196 15.852 84.152 17.604C83.948 17.412 83.516 17.1 83.252 16.968C84.152 15.372 84.26 13.008 84.26 11.244V7.152Z" fill="#A8C7FA"/>
<rect x="48.5" y="2.5" width="48" height="19" rx="5.5" stroke="#A8C7FA"/>
</g>
<defs>
<clipPath id="clip0_237_28819">
<rect width="97" height="28" fill="white"/>
</clipPath>
</defs>
</svg>
